<svg data-v-423bf9ae="" xmlns="http://www.w3.org/2000/svg" viewBox="0 0 441 90" class="iconLeft"><!----><!----><!----><g data-v-423bf9ae="" id="3bf0728a-3c6f-4a79-ae4e-3c099629417d" fill="black" transform="matrix(4.444444444444445,0,0,4.444444444444445,106.71267098850674,5.311110575993851)"><path d="M9.17 8.19L9.17 8.19L9.17 8.19Q9.17 9.45 8.78 10.38L8.78 10.38L8.78 10.38Q8.39 11.31 7.67 11.92L7.67 11.92L7.67 11.92Q6.96 12.53 5.96 12.83L5.96 12.83L5.96 12.83Q4.97 13.13 3.78 13.13L3.78 13.13L3.78 13.13Q3.19 13.13 2.48 13.08L2.48 13.08L2.48 13.08Q1.78 13.03 1.20 12.89L1.20 12.89L1.20 3.49L1.20 3.49Q1.78 3.35 2.48 3.30L2.48 3.30L2.48 3.30Q3.19 3.25 3.78 3.25L3.78 3.25L3.78 3.25Q4.97 3.25 5.96 3.55L5.96 3.55L5.96 3.55Q6.96 3.85 7.67 4.46L7.67 4.46L7.67 4.46Q8.39 5.07 8.78 6.00L8.78 6.00L8.78 6.00Q9.17 6.93 9.17 8.19ZM3.89 11.94L3.89 11.94L3.89 11.94Q5.82 11.94 6.78 10.96L6.78 10.96L6.78 10.96Q7.73 9.97 7.73 8.19L7.73 8.19L7.73 8.19Q7.73 6.41 6.78 5.42L6.78 5.42L6.78 5.42Q5.82 4.44 3.89 4.44L3.89 4.44L3.89 4.44Q3.32 4.44 3.00 4.45L3.00 4.45L3.00 4.45Q2.69 4.47 2.56 4.48L2.56 4.48L2.56 11.90L2.56 11.90Q2.69 11.91 3.00 11.93L3.00 11.93L3.00 11.93Q3.32 11.94 3.89 11.94ZM17.53 9.41L17.53 9.41L17.53 9.41Q17.53 10.28 17.28 10.98L17.28 10.98L17.28 10.98Q17.02 11.68 16.57 12.18L16.57 12.18L16.57 12.18Q16.11 12.68 15.48 12.96L15.48 12.96L15.48 12.96Q14.85 13.23 14.11 13.23L14.11 13.23L14.11 13.23Q13.37 13.23 12.74 12.96L12.74 12.96L12.74 12.96Q12.11 12.68 11.66 12.18L11.66 12.18L11.66 12.18Q11.20 11.68 10.95 10.98L10.95 10.98L10.95 10.98Q10.70 10.28 10.70 9.41L10.70 9.41L10.70 9.41Q10.70 8.55 10.95 7.85L10.95 7.85L10.95 7.85Q11.20 7.14 11.66 6.64L11.66 6.64L11.66 6.64Q12.11 6.13 12.74 5.86L12.74 5.86L12.74 5.86Q13.37 5.59 14.11 5.59L14.11 5.59L14.11 5.59Q14.85 5.59 15.48 5.86L15.48 5.86L15.48 5.86Q16.11 6.13 16.57 6.64L16.57 6.64L16.57 6.64Q17.02 7.14 17.28 7.85L17.28 7.85L17.28 7.85Q17.53 8.55 17.53 9.41ZM16.17 9.41L16.17 9.41L16.17 9.41Q16.17 8.18 15.62 7.46L15.62 7.46L15.62 7.46Q15.06 6.73 14.11 6.73L14.11 6.73L14.11 6.73Q13.16 6.73 12.61 7.46L12.61 7.46L12.61 7.46Q12.05 8.18 12.05 9.41L12.05 9.41L12.05 9.41Q12.05 10.64 12.61 11.36L12.61 11.36L12.61 11.36Q13.16 12.08 14.11 12.08L14.11 12.08L14.11 12.08Q15.06 12.08 15.62 11.36L15.62 11.36L15.62 11.36Q16.17 10.64 16.17 9.41ZM20.58 3.51L20.58 5.77L23.34 5.77L23.34 6.86L20.58 6.86L20.58 10.22L20.58 10.22Q20.58 10.77 20.66 11.12L20.66 11.12L20.66 11.12Q20.75 11.48 20.92 11.68L20.92 11.68L20.92 11.68Q21.08 11.89 21.34 11.97L21.34 11.97L21.34 11.97Q21.59 12.05 21.92 12.05L21.92 12.05L21.92 12.05Q22.51 12.05 22.87 11.92L22.87 11.92L22.87 11.92Q23.23 11.79 23.37 11.73L23.37 11.73L23.62 12.81L23.62 12.81Q23.42 12.91 22.93 13.05L22.93 13.05L22.93 13.05Q22.44 13.20 21.81 13.20L21.81 13.20L21.81 13.20Q21.07 13.20 20.59 13.01L20.59 13.01L20.59 13.01Q20.10 12.82 19.81 12.45L19.81 12.45L19.81 12.45Q19.52 12.07 19.40 11.52L19.40 11.52L19.40 11.52Q19.28 10.96 19.28 10.23L19.28 10.23L19.28 3.74L20.58 3.51ZM31.35 13.05L25.07 13.05L25.07 3.35L31.00 3.35L31.00 4.51L26.43 4.51L26.43 7.39L30.49 7.39L30.49 8.53L26.43 8.53L26.43 11.89L31.35 11.89L31.35 13.05ZM34.29 5.77L34.29 13.05L32.98 13.05L32.98 5.77L34.29 5.77ZM33.63 4.45L33.63 4.45L33.63 4.45Q33.28 4.45 33.03 4.22L33.03 4.22L33.03 4.22Q32.79 3.99 32.79 3.60L32.79 3.60L32.79 3.60Q32.79 3.21 33.03 2.97L33.03 2.97L33.03 2.97Q33.28 2.74 33.63 2.74L33.63 2.74L33.63 2.74Q33.98 2.74 34.22 2.97L34.22 2.97L34.22 2.97Q34.47 3.21 34.47 3.60L34.47 3.60L34.47 3.60Q34.47 3.99 34.22 4.22L34.22 4.22L34.22 4.22Q33.98 4.45 33.63 4.45ZM41.09 12.63L41.09 12.32L41.09 12.32Q40.92 12.43 40.44 12.61L40.44 12.61L40.44 12.61Q39.96 12.78 39.31 12.78L39.31 12.78L39.31 12.78Q38.65 12.78 38.07 12.57L38.07 12.57L38.07 12.57Q37.49 12.36 37.06 11.92L37.06 11.92L37.06 11.92Q36.62 11.48 36.37 10.82L36.37 10.82L36.37 10.82Q36.12 10.16 36.12 9.25L36.12 9.25L36.12 9.25Q36.12 8.46 36.36 7.79L36.36 7.79L36.36 7.79Q36.60 7.13 37.05 6.64L37.05 6.64L37.05 6.64Q37.51 6.16 38.16 5.89L38.16 5.89L38.16 5.89Q38.82 5.61 39.65 5.61L39.65 5.61L39.65 5.61Q40.56 5.61 41.24 5.75L41.24 5.75L41.24 5.75Q41.92 5.88 42.38 5.99L42.38 5.99L42.38 12.49L42.38 12.49Q42.38 14.17 41.51 14.92L41.51 14.92L41.51 14.92Q40.64 15.68 38.88 15.68L38.88 15.68L38.88 15.68Q38.19 15.68 37.58 15.57L37.58 15.57L37.58 15.57Q36.97 15.46 36.53 15.30L36.53 15.30L36.76 14.17L36.76 14.17Q37.16 14.32 37.72 14.44L37.72 14.44L37.72 14.44Q38.29 14.56 38.91 14.56L38.91 14.56L38.91 14.56Q40.07 14.56 40.58 14.10L40.58 14.10L40.58 14.10Q41.09 13.64 41.09 12.63L41.09 12.63ZM41.08 11.17L41.08 6.92L41.08 6.92Q40.88 6.86 40.55 6.81L40.55 6.81L40.55 6.81Q40.22 6.76 39.66 6.76L39.66 6.76L39.66 6.76Q38.61 6.76 38.05 7.45L38.05 7.45L38.05 7.45Q37.48 8.13 37.48 9.27L37.48 9.27L37.48 9.27Q37.48 9.90 37.64 10.35L37.64 10.35L37.64 10.35Q37.80 10.79 38.07 11.09L38.07 11.09L38.07 11.09Q38.35 11.38 38.70 11.52L38.70 11.52L38.70 11.52Q39.06 11.66 39.44 11.66L39.44 11.66L39.44 11.66Q39.96 11.66 40.39 11.52L40.39 11.52L40.39 11.52Q40.82 11.37 41.08 11.17L41.08 11.17ZM45.92 13.05L44.62 13.05L44.62 2.41L45.92 2.18L45.92 5.91L45.92 5.91Q46.28 5.77 46.70 5.69L46.70 5.69L46.70 5.69Q47.11 5.61 47.52 5.61L47.52 5.61L47.52 5.61Q48.38 5.61 48.96 5.86L48.96 5.86L48.96 5.86Q49.53 6.10 49.88 6.54L49.88 6.54L49.88 6.54Q50.22 6.99 50.36 7.60L50.36 7.60L50.36 7.60Q50.50 8.22 50.50 8.96L50.50 8.96L50.50 13.05L49.20 13.05L49.20 9.24L49.20 9.24Q49.20 8.57 49.10 8.09L49.10 8.09L49.10 8.09Q49.01 7.62 48.80 7.32L48.80 7.32L48.80 7.32Q48.59 7.03 48.24 6.89L48.24 6.89L48.24 6.89Q47.89 6.76 47.38 6.76L47.38 6.76L47.38 6.76Q47.17 6.76 46.94 6.79L46.94 6.79L46.94 6.79Q46.72 6.82 46.52 6.85L46.52 6.85L46.52 6.85Q46.31 6.89 46.15 6.93L46.15 6.93L46.15 6.93Q45.99 6.97 45.92 7L45.92 7L45.92 13.05ZM53.83 3.51L53.83 5.77L56.59 5.77L56.59 6.86L53.83 6.86L53.83 10.22L53.83 10.22Q53.83 10.77 53.91 11.12L53.91 11.12L53.91 11.12Q54.00 11.48 54.17 11.68L54.17 11.68L54.17 11.68Q54.33 11.89 54.59 11.97L54.59 11.97L54.59 11.97Q54.84 12.05 55.17 12.05L55.17 12.05L55.17 12.05Q55.76 12.05 56.12 11.92L56.12 11.92L56.12 11.92Q56.48 11.79 56.62 11.73L56.62 11.73L56.87 12.81L56.87 12.81Q56.67 12.91 56.18 13.05L56.18 13.05L56.18 13.05Q55.69 13.20 55.06 13.20L55.06 13.20L55.06 13.20Q54.32 13.20 53.84 13.01L53.84 13.01L53.84 13.01Q53.35 12.82 53.06 12.45L53.06 12.45L53.06 12.45Q52.77 12.07 52.65 11.52L52.65 11.52L52.65 11.52Q52.53 10.96 52.53 10.23L52.53 10.23L52.53 3.74L53.83 3.51ZM58.32 13.05L58.32 3.35L59.68 3.35L59.68 13.05L58.32 13.05ZM62.01 13.05L62.01 5.98L62.01 5.98Q62.45 5.87 63.20 5.74L63.20 5.74L63.20 5.74Q63.94 5.61 64.90 5.61L64.90 5.61L64.90 5.61Q65.77 5.61 66.35 5.86L66.35 5.86L66.35 5.86Q66.92 6.10 67.26 6.54L67.26 6.54L67.26 6.54Q67.61 6.99 67.75 7.60L67.75 7.60L67.75 7.60Q67.89 8.22 67.89 8.96L67.89 8.96L67.89 13.05L66.58 13.05L66.58 9.24L66.58 9.24Q66.58 8.57 66.49 8.09L66.49 8.09L66.49 8.09Q66.40 7.62 66.19 7.32L66.19 7.32L66.19 7.32Q65.98 7.03 65.63 6.89L65.63 6.89L65.63 6.89Q65.28 6.76 64.76 6.76L64.76 6.76L64.76 6.76Q64.55 6.76 64.33 6.78L64.33 6.78L64.33 6.78Q64.11 6.79 63.90 6.81L63.90 6.81L63.90 6.81Q63.70 6.83 63.54 6.86L63.54 6.86L63.54 6.86Q63.38 6.89 63.31 6.90L63.31 6.90L63.31 13.05L62.01 13.05ZM73.21 13.22L73.21 13.22L73.21 13.22Q72.32 13.22 71.66 12.94L71.66 12.94L71.66 12.94Q70.99 12.66 70.54 12.15L70.54 12.15L70.54 12.15Q70.08 11.65 69.86 10.96L69.86 10.96L69.86 10.96Q69.64 10.26 69.64 9.42L69.64 9.42L69.64 9.42Q69.64 8.58 69.88 7.88L69.88 7.88L69.88 7.88Q70.13 7.18 70.57 6.67L70.57 6.67L70.57 6.67Q71.02 6.16 71.67 5.87L71.67 5.87L71.67 5.87Q72.32 5.59 73.12 5.59L73.12 5.59L73.12 5.59Q73.61 5.59 74.10 5.67L74.10 5.67L74.10 5.67Q74.59 5.75 75.04 5.94L75.04 5.94L74.75 7.04L74.75 7.04Q74.45 6.90 74.07 6.82L74.07 6.82L74.07 6.82Q73.68 6.73 73.25 6.73L73.25 6.73L73.25 6.73Q72.16 6.73 71.58 7.42L71.58 7.42L71.58 7.42Q70.99 8.11 70.99 9.42L70.99 9.42L70.99 9.42Q70.99 10.01 71.13 10.50L71.13 10.50L71.13 10.50Q71.26 10.99 71.55 11.34L71.55 11.34L71.55 11.34Q71.83 11.69 72.28 11.88L72.28 11.88L72.28 11.88Q72.73 12.07 73.37 12.07L73.37 12.07L73.37 12.07Q73.89 12.07 74.31 11.97L74.31 11.97L74.31 11.97Q74.73 11.87 74.97 11.76L74.97 11.76L75.15 12.85L75.15 12.85Q75.04 12.92 74.83 12.98L74.83 12.98L74.83 12.98Q74.62 13.05 74.35 13.10L74.35 13.10L74.35 13.10Q74.09 13.15 73.79 13.18L73.79 13.18L73.79 13.18Q73.49 13.22 73.21 13.22Z"></path></g><!----><g data-v-423bf9ae="" id="692e67c1-943c-4e1b-9c27-56216e77ca6a" transform="matrix(1.1414221157695137,0,0,1.1414221157695137,-10.343879888974278,-11.465698853151771)" stroke="none" fill="black"><switch><g><path d="M89.141 35.617C86.25 22.852 77.844 14.405 68.699 10.364c11.371 10.018 21.846 29.405 8.814 47.069-5.406 7.331-16.217 10.228-20.746 8.184 0 0 7.002-1.487 11.357-5.295 8.469-8.017 11.299-20.932 4.52-32.673a25.839 25.839 0 0 0-3.357-4.575c-.018-.021-.033-.042-.051-.062-4.764-5.683-11.307-9.075-18.337-10.116-9.127-1.715-20.896.515-29.71 8.666C11.58 30.45 8.468 41.953 9.542 51.895c2.989-14.858 14.542-33.622 36.355-31.171 9.053 1.019 16.965 8.932 17.461 13.877 0 0-5.277-8.281-18.365-8.281-.24.004-.747.024-.761.024l-.167.01c-8.51.333-16.783 4.784-21.83 13.526a25.819 25.819 0 0 0-2.284 5.195l-.028.074c-2.539 6.968-2.205 14.33.407 20.938 3.079 8.763 10.896 17.841 22.361 21.397 12.502 3.878 24.02.82 32.092-5.079-14.363 4.837-36.389 4.216-45.173-15.899-3.645-8.35-.749-19.159 3.287-22.061 0 0-4.534 8.71 2.012 20.044 4.482 7.484 12.617 12.658 22.949 12.658.498 0 4.488-.311 5.926-.633l.08-.011c7.303-1.286 13.512-5.256 17.928-10.822 6.05-7.046 10.003-18.356 7.349-30.064z"></path></g></switch></g><!----></svg>